:SAMPLES-PER-SECOND 30
:FULLY-SPECIFIED
:DEGREES
537
root  -0.0192479 34.4547 27.9234 2.91056 20.575 -1.53812
LeftUpLeg  -12.9535 3.72949 5.78511
LeftLeg  8.40771 -6.95576 -0.57457
LeftFoot  10.1703 0.110541 -1.24218
LeftToes  -22.7927 2.60077e-006 -1.42232e-007
Spine  2.34378 3.44123 -1.01295
Spine1  4.27047 6.95787 -1.85173
RightShoulder  0.062838 6.92108 3.30615
RightArm  -12.8305 -5.92516 66.766
RightForeArm  60.1423 63.0093 20.3126
RightHand  -0.732427 5.38593 -15.1253
LeftShoulder1  0.0355747 0.715619 -8.02089
LeftArm  -15.139 -16.0047 -68.0638
LeftForeArm  -0.16141 -51.346 -12.7298
LeftHand  -0.287792 8.48631 -4.244
HEad  -2.39685 -18.7817 -4.57802
RightUpLeg  -6.94367 -10.9947 0.975776
RightLeg  11.9993 -5.09412 -0.741705
RightFoot  -0.83243 -0.00201393 0.100405
RightToes  -28.1181 -0.125898 -0.238676
538
root  0.0281884 34.4565 27.9777 2.90961 19.7395 -1.49153
LeftUpLeg  -12.835 3.88154 5.78511
LeftLeg  8.82179 -6.29294 -0.565917
LeftFoot  9.75574 0.0919444 -1.07735
LeftToes  -22.6047 2.60077e-006 -1.42232e-007
Spine  2.36383 3.41719 -0.95301
Spine1  4.31052 6.91196 -1.72933
RightShoulder  0.0628153 6.72936 3.43895
RightArm  -12.821 -5.83621 66.4077
RightForeArm  61.1545 64.0366 21.2957
RightHand  -0.743596 5.20083 -15.9126
LeftShoulder1  0.035683 0.662134 -8.30705
LeftArm  -15.163 -13.7694 -66.8731
LeftForeArm  2.3729 -48.4983 -11.4904
LeftHand  -0.23908 7.76682 -3.88736
HEad  -1.6508 -19.0753 -4.44374
RightUpLeg  -6.83418 -10.5058 0.868168
RightLeg  11.9156 -4.78947 -0.690274
RightFoot  -0.739455 -0.00201296 0.0891085
RightToes  -28.2841 -0.126272 -0.239849
539
root  0.0809857 34.4546 28.0212 2.92656 18.8402 -1.44131
LeftUpLeg  -12.7686 4.06856 5.76975
LeftLeg  9.30427 -5.62397 -0.553828
LeftFoot  9.30898 0.0747235 -0.917797
LeftToes  -22.4861 2.60077e-006 -1.42232e-007
Spine  2.40483 3.36328 -0.863118
Spine1  4.38921 6.80765 -1.54665
RightShoulder  0.0626239 6.53752 3.5289
RightArm  -13.0781 -5.65438 66.304
RightForeArm  62.0733 65.1126 22.4155
RightHand  -0.760254 5.19332 -16.2961
LeftShoulder1  0.0358122 0.567207 -8.82883
LeftArm  -14.9 -10.8124 -65.6181
LeftForeArm  4.53923 -45.362 -10.2808
LeftHand  -0.184293 7.72687 -3.09562
HEad  -1.70909 -19.2567 -4.19762
RightUpLeg  -6.83415 -10.1663 0.741421
RightLeg  11.9687 -4.27992 -0.620958
RightFoot  -0.642197 -0.00191807 0.077233
RightToes  -28.5032 -0.12671 -0.240836
540
root  0.143015 34.4576 28.0616 3.08424 17.8583 -1.36751
LeftUpLeg  -12.7112 4.34323 5.69918
LeftLeg  9.54913 -4.92622 -0.506701
LeftFoot  8.98734 0.0608123 -0.773784
LeftToes  -22.4744 2.60077e-006 -1.42232e-007
Spine  2.37451 3.30757 -0.749465
Spine1  4.33171 6.70478 -1.32971
RightShoulder  0.0623004 6.29266 3.54007
RightArm  -13.5715 -5.51356 66.3527
RightForeArm  62.9892 66.0525 23.4788
RightHand  -0.816471 5.53779 -16.4107
LeftShoulder1  0.0359645 0.429119 -9.44251
LeftArm  -14.3769 -7.12079 -64.548
LeftForeArm  7.92359 -41.4788 -8.9626
LeftHand  -0.116547 7.27544 -2.2009
HEad  -2.24034 -19.2873 -3.85038
RightUpLeg  -6.96402 -9.82206 0.592473
RightLeg  11.9885 -3.68266 -0.535626
RightFoot  -0.521835 -0.0017456 0.064995
RightToes  -28.5494 -0.127199 -0.241657
541
root  0.21532 34.4635 28.1025 3.34217 16.94 -1.25594
LeftUpLeg  -12.6467 4.66665 5.54746
LeftLeg  9.56438 -4.31877 -0.445648
LeftFoot  8.74448 0.0501493 -0.655905
LeftToes  -22.2245 2.60077e-006 -1.42232e-007
Spine  2.30419 3.22178 -0.653333
Spine1  4.20517 6.55542 -1.1722
RightShoulder  0.0618761 6.06273 3.6322
RightArm  -13.9496 -5.34928 66.2774
RightForeArm  63.8941 66.8025 24.3919
RightHand  -0.860353 5.81169 -16.476
LeftShoulder1  0.0361422 0.257928 -9.92444
LeftArm  -14.3687 -3.25943 -63.9085
LeftForeArm  12.705 -36.569 -7.51065
LeftHand  -0.0741031 6.15906 -1.7453
HEad  -2.92284 -19.1259 -3.22591
RightUpLeg  -7.14887 -9.59012 0.403434
RightLeg  11.946 -3.03291 -0.438755
RightFoot  -0.384521 -0.00158869 0.053803
RightToes  -28.8447 -0.127726 -0.242335
542
root  0.286269 34.4676 28.1364 3.59875 16.1654 -1.17214
LeftUpLeg  -12.6452 4.87267 5.40922
LeftLeg  9.60946 -3.73921 -0.389062
LeftFoot  8.50826 0.0415786 -0.547115
LeftToes  -22.0714 2.60077e-006 -1.42232e-007
Spine  2.2511 3.13049 -0.533956
Spine1  4.12452 6.40554 -0.987021
RightShoulder  0.0613525 5.84847 3.70821
RightArm  -14.1237 -5.10626 65.9466
RightForeArm  65.1148 67.4181 25.1874
RightHand  -0.859105 5.90096 -16.2003
LeftShoulder1  0.0363473 0.0990836 -10.2154
LeftArm  -14.8949 0.347741 -63.9515
LeftForeArm  17.988 -30.5167 -5.95956
LeftHand  -0.0610692 5.30022 -1.68707
HEad  -3.68643 -18.963 -2.38306
RightUpLeg  -7.32196 -8.97934 0.256121
RightLeg  11.852 -2.89416 -0.4138
RightFoot  -0.252215 -0.00167802 0.0472023
RightToes  -28.9281 -0.128277 -0.242888
543
root  0.360264 34.4635 28.1821 3.77516 15.3775 -1.04619
LeftUpLeg  -12.663 5.31952 5.22042
LeftLeg  9.92037 -3.39282 -0.371813
LeftFoot  8.12522 0.0351601 -0.471407
LeftToes  -21.931 2.60077e-006 -1.42232e-007
Spine  2.23764 3.0562 -0.433715
Spine1  4.11636 6.26305 -0.80917
RightShoulder  0.0607478 5.69733 3.81503
RightArm  -14.1466 -4.82926 65.3819
RightForeArm  66.2694 67.8095 25.7163
RightHand  -0.864354 6.06969 -15.8417
LeftShoulder1  0.036711 0.0989133 -10.4096
LeftArm  -15.4094 3.55351 -64.5294
LeftForeArm  24.0575 -23.5244 -4.39537
LeftHand  -0.0151967 4.9925 -0.717526
HEad  -4.19976 -18.8679 -1.42824
RightUpLeg  -7.53705 -8.5049 0.0454576
RightLeg  12.0821 -2.6096 -0.383771
RightFoot  -0.323769 -0.00243423 0.0516861
RightToes  -28.9256 -0.12884 -0.243339
544
root  0.435196 34.4254 28.2269 3.91152 14.7113 -0.93957
LeftUpLeg  -13.0276 5.55897 5.06131
LeftLeg  10.9926 -2.98081 -0.383517
LeftFoot  7.35559 0.0272175 -0.371583
LeftToes  -21.8126 2.60077e-006 -1.42232e-007
Spine  2.29051 2.94473 -0.372698
Spine1  4.20337 6.01587 -0.607406
RightShoulder  0.060118 5.5488 3.98122
RightArm  -14.0996 -4.48957 64.565
RightForeArm  67.3857 68.1518 26.1951
RightHand  -0.879283 6.24392 -15.6625
LeftShoulder1  0.04989 0.0940887 -10.6081
LeftArm  -16.0611 6.86347 -65.337
LeftForeArm  30.7065 -18.6254 -3.39856
LeftHand  0.0111368 4.98774 -0.114088
HEad  -4.48514 -19.0169 -0.561417
RightUpLeg  -7.98101 -8.21697 -0.163374
RightLeg  12.9052 -2.24694 -0.363503
RightFoot  -0.767345 -0.00459739 0.0787081
RightToes  -28.9518 -0.129402 -0.243706
545
root  0.499297 34.3932 28.2628 3.99482 14.1752 -0.8264
LeftUpLeg  -13.2956 5.7254 4.89844
LeftLeg  11.8677 -2.61282 -0.377097
LeftFoot  6.72712 0.0203119 -0.287378
LeftToes  -21.6635 2.60077e-006 -1.42232e-007
Spine  2.33331 2.95396 -0.277166
Spine1  4.31209 6.08616 -0.443359
RightShoulder  0.059487 5.35216 4.13459
RightArm  -13.9998 -4.27862 63.5084
RightForeArm  68.7053 68.5668 26.7982
RightHand  -0.904307 6.42212 -15.6599
LeftShoulder1  0.0530441 0.153903 -10.7278
LeftArm  -17.2254 10.0542 -66.4399
LeftForeArm  37.0321 -14.77 -2.65305
LeftHand  0.0076547 4.89724 -0.190666
HEad  -4.69202 -19.1949 0.0715538
RightUpLeg  -8.30739 -7.99012 -0.374093
RightLeg  13.5732 -1.94815 -0.338546
RightFoot  -1.15036 -0.00625304 0.0985063
RightToes  -28.8667 -0.129948 -0.244012
546
root  0.543141 34.3808 28.2909 4.06763 13.6834 -0.703692
LeftUpLeg  -13.343 5.92831 4.74328
LeftLeg  12.2233 -2.32519 -0.35054
LeftFoot  6.43079 0.0152123 -0.23068
LeftToes  -21.6066 2.60077e-006 -1.42232e-007
Spine  2.33633 3.07138 -0.173258
Spine1  4.37468 6.42256 -0.357583
RightShoulder  0.0588526 5.19664 4.29878
RightArm  -13.9626 -4.30356 62.3902
RightForeArm  70.2348 69.0331 27.5069
RightHand  -0.938486 6.65645 -15.6781
LeftShoulder1  0.0457309 0.261723 -10.6928
LeftArm  -18.7176 13.3198 -67.6234
LeftForeArm  41.4177 -11.7669 -2.09071
LeftHand  0.00776975 5.16921 -0.197558
HEad  -4.90692 -19.249 0.369921
RightUpLeg  -8.44743 -7.5668 -0.556937
RightLeg  13.8127 -1.88125 -0.335055
RightFoot  -1.26475 -0.00709909 0.106355
RightToes  -28.8521 -0.130467 -0.243909
